<?xml version="1.0" standalone="no"?>
<!DOCTYPE svg PUBLIC "-//W3C//DTD SVG 20010904//EN"
 "http://www.w3.org/TR/2001/REC-SVG-20010904/DTD/svg10.dtd">
<svg version="1.0" xmlns="http://www.w3.org/2000/svg"
 width="512.000000pt" height="512.000000pt" viewBox="0 0 512.000000 512.000000"
 preserveAspectRatio="xMidYMid meet">

<g transform="translate(0.000000,512.000000) scale(0.100000,-0.100000)"
fill="#000000" stroke="none">
<path d="M2500 4130 l0 -990 70 0 70 0 0 920 0 920 1025 0 1025 0 0 -2240 0
-2240 -1025 0 -1025 0 0 550 0 551 -67 -3 -68 -3 0 -615 0 -615 1158 -3 1157
-2 0 2380 0 2380 -1160 0 -1160 0 0 -990z"/>
<path d="M2830 4635 l0 -155 835 0 835 0 0 155 0 155 -835 0 -835 0 0 -155z
m670 5 l0 -60 -280 0 -280 0 0 60 0 60 280 0 280 0 0 -60z m520 0 l0 -60 -60
0 -60 0 0 60 0 60 60 0 60 0 0 -60z m190 0 l0 -60 -60 0 -60 0 0 60 0 60 60 0
60 0 0 -60z m190 0 l0 -60 -60 0 -60 0 0 53 c0 30 3 57 7 60 3 4 30 7 60 7
l53 0 0 -60z"/>
<path d="M2830 3795 l0 -155 835 0 835 0 0 155 0 155 -835 0 -835 0 0 -155z
m670 5 l0 -60 -280 0 -280 0 0 60 0 60 280 0 280 0 0 -60z m518 -2 l3 -58 -61
0 -60 0 0 60 0 61 58 -3 57 -3 3 -57z m192 2 l0 -60 -60 0 -60 0 0 53 c0 30 3
57 7 60 3 4 30 7 60 7 l53 0 0 -60z m190 0 l0 -60 -60 0 -60 0 0 53 c0 30 3
57 7 60 3 4 30 7 60 7 l53 0 0 -60z"/>
<path d="M1058 3881 c-70 -28 -113 -57 -157 -107 -128 -146 -130 -356 -5 -503
l36 -41 258 0 258 0 29 38 c47 61 61 86 79 147 50 174 -38 371 -203 452 -76
37 -221 44 -295 14z"/>
<path d="M727 3180 c-93 -28 -228 -127 -301 -220 -95 -120 -130 -218 -124
-344 2 -68 9 -93 36 -148 40 -82 120 -159 220 -211 l72 -38 0 157 0 156 -30
35 c-45 51 -37 113 28 207 l27 39 5 -1324 5 -1325 26 -49 c76 -149 292 -150
372 -2 l22 42 3 803 2 803 38 -3 37 -3 5 -805 c6 -895 1 -833 74 -897 96 -85
240 -62 313 49 l28 42 5 1062 5 1063 44 -30 c78 -52 169 -73 311 -74 140 0
163 8 201 68 29 46 22 118 -16 157 -37 39 -72 48 -180 48 -126 0 -164 15 -193
74 -28 56 -39 129 -50 344 -8 147 -11 167 -36 218 -19 39 -41 66 -69 84 l-41
27 -405 2 c-223 1 -419 -2 -434 -7z"/>
<path d="M3194 3096 c-3 -8 -4 -29 -2 -48 l3 -33 153 -3 152 -3 0 -59 0 -60
-155 0 -155 0 0 -45 0 -45 655 0 656 0 -3 153 -3 152 -648 3 c-550 2 -648 0
-653 -12z m824 -143 l-3 -58 -57 -3 -58 -3 0 61 0 60 60 0 61 0 -3 -57z m192
-3 l0 -61 -57 3 -58 3 -3 58 -3 57 61 0 60 0 0 -60z m190 0 l0 -61 -57 3 -58
3 -3 58 -3 57 61 0 60 0 0 -60z"/>
<path d="M1890 2680 l0 -210 40 0 40 0 0 175 0 175 425 0 425 0 0 -265 0 -265
-306 -2 -306 -3 -14 -40 c-7 -22 -27 -52 -44 -67 l-30 -28 415 0 416 0 -3 38
c-2 30 -7 38 -25 40 l-23 3 0 330 0 329 -505 0 -505 0 0 -210z"/>
<path d="M3194 2676 c-3 -8 -4 -29 -2 -48 l3 -33 153 -3 152 -3 0 -59 0 -60
-155 0 -155 0 0 -45 0 -45 655 0 656 0 -3 153 -3 152 -648 3 c-550 2 -648 0
-653 -12z m824 -143 l-3 -58 -57 -3 -58 -3 0 61 0 60 60 0 61 0 -3 -57z m192
-3 l0 -60 -60 0 -60 0 0 60 0 60 60 0 60 0 0 -60z m190 0 l0 -61 -57 3 -58 3
-3 58 -3 57 61 0 60 0 0 -60z"/>
<path d="M2060 2481 c0 -22 73 -31 251 -31 161 0 189 -2 189 -15 0 -13 -25
-15 -165 -15 -91 0 -165 -3 -165 -6 0 -3 5 -14 10 -25 10 -18 24 -19 285 -19
l275 0 0 60 0 60 -340 0 c-195 0 -340 -4 -340 -9z"/>
<path d="M3190 2215 l0 -45 155 0 155 0 0 -60 0 -60 -155 0 -155 0 0 -45 0
-45 655 0 655 0 0 150 0 150 -655 0 -655 0 0 -45z m830 -105 l0 -60 -60 0 -60
0 0 60 0 60 60 0 60 0 0 -60z m190 0 l0 -60 -60 0 -60 0 0 60 0 60 60 0 60 0
0 -60z m190 0 l0 -61 -57 3 -58 3 -3 58 -3 57 61 0 60 0 0 -60z"/>
<path d="M1627 2053 c-4 -3 -7 -48 -7 -100 l0 -93 705 0 705 0 0 100 0 100
-698 0 c-384 0 -702 -3 -705 -7z"/>
<path d="M3190 1795 l0 -45 155 0 155 0 0 -60 0 -60 -155 0 c-131 0 -155 -2
-155 -15 0 -13 -27 -15 -180 -15 l-180 0 0 -30 0 -30 835 0 835 0 0 150 0 150
-655 0 -655 0 0 -45z m830 -105 l0 -60 -60 0 -60 0 0 60 0 60 60 0 60 0 0 -60z
m190 0 l0 -60 -60 0 -60 0 0 60 0 60 60 0 60 0 0 -60z m190 0 l0 -61 -57 3
-58 3 -3 58 -3 57 61 0 60 0 0 -60z"/>
<path d="M2830 1270 l0 -150 835 0 835 0 0 150 0 150 -835 0 -835 0 0 -150z
m670 0 l0 -60 -280 0 -280 0 0 60 0 60 280 0 280 0 0 -60z m520 0 l0 -60 -60
0 -60 0 0 60 0 60 60 0 60 0 0 -60z m190 0 l0 -60 -60 0 -60 0 0 60 0 60 60 0
60 0 0 -60z m190 0 l0 -61 -57 3 -58 3 -3 58 -3 57 61 0 60 0 0 -60z"/>
<path d="M2830 850 l0 -150 835 0 835 0 0 150 0 150 -835 0 -835 0 0 -150z
m670 0 l0 -60 -280 0 -280 0 0 60 0 60 280 0 280 0 0 -60z m520 0 l0 -60 -60
0 -60 0 0 60 0 60 60 0 60 0 0 -60z m190 0 l0 -60 -60 0 -60 0 0 60 0 60 60 0
60 0 0 -60z m190 0 l0 -61 -57 3 -58 3 -3 58 -3 57 61 0 60 0 0 -60z"/>
</g>
</svg>
