<?xml version="1.0" standalone="no"?>
<!DOCTYPE svg PUBLIC "-//W3C//DTD SVG 20010904//EN"
 "http://www.w3.org/TR/2001/REC-SVG-20010904/DTD/svg10.dtd">
<svg version="1.0" xmlns="http://www.w3.org/2000/svg"
 width="512.000000pt" height="512.000000pt" viewBox="0 0 512.000000 512.000000"
 preserveAspectRatio="xMidYMid meet">

<g transform="translate(0.000000,512.000000) scale(0.100000,-0.100000)"
fill="#000000" stroke="none">
<path d="M402 4894 c-140 -37 -278 -148 -341 -271 -62 -125 -61 -92 -61 -1164
0 -946 1 -978 20 -1055 46 -181 181 -319 370 -380 48 -15 107 -18 468 -22 226
-2 412 -7 412 -11 0 -3 -25 -61 -55 -128 -42 -94 -55 -133 -55 -170 1 -99 68
-183 164 -203 35 -8 281 -10 786 -8 l735 3 47 28 c65 38 102 102 103 177 0 43
-9 74 -39 140 -21 47 -47 104 -57 128 l-18 42 104 0 105 0 34 -68 c19 -37 53
-92 76 -121 l43 -54 -18 -56 c-10 -31 -20 -92 -23 -136 l-5 -80 -59 -65 c-124
-135 -210 -292 -258 -470 -21 -78 -24 -111 -28 -388 l-4 -304 23 -24 22 -24
1012 0 1012 0 21 23 c21 23 22 30 22 293 -1 357 -19 464 -83 476 -33 6 -63 -6
-82 -35 -14 -22 -14 -32 0 -112 10 -59 15 -153 15 -291 l0 -204 -415 0 -415 0
0 493 1 492 142 -148 c141 -147 143 -148 182 -145 38 3 45 9 137 128 54 68 99
129 102 135 4 13 49 -29 92 -86 37 -51 69 -65 108 -48 29 14 50 59 41 89 -7
23 -75 111 -135 175 -36 38 -38 44 -42 120 -3 44 -13 105 -23 136 l-18 56 42
53 c55 70 126 218 146 305 9 39 19 83 23 99 6 24 15 31 53 40 105 27 198 106
251 214 30 61 33 75 33 162 0 85 -3 102 -31 160 -17 36 -52 87 -77 113 -48 49
-153 107 -194 107 l-23 0 0 241 0 240 41 61 c56 82 95 172 119 271 17 70 20
118 20 333 0 242 -1 252 -21 270 -20 18 -44 19 -408 22 l-388 3 -17 62 c-52
187 -199 334 -381 382 -52 13 -228 15 -1401 15 l-1343 0 -20 -26 c-12 -15 -21
-33 -21 -40 0 -11 -21 -14 -95 -14 -82 0 -97 2 -102 18 -3 9 -15 27 -26 40
-19 21 -28 22 -156 21 -84 0 -156 -6 -189 -15z m3277 -431 c24 -16 24 -16 -49
-40 -89 -29 -168 -80 -222 -144 l-40 -48 -37 28 c-103 81 -261 70 -356 -24
-57 -57 -78 -114 -83 -222 -5 -103 7 -137 53 -149 25 -6 25 -8 25 -105 0 -83
-3 -99 -15 -99 -9 0 -27 -11 -40 -25 -23 -22 -25 -32 -25 -118 0 -126 18 -182
80 -250 l50 -55 0 -101 c0 -98 -1 -101 -22 -101 -40 0 -146 -58 -193 -105 -26
-25 -61 -76 -78 -113 -29 -61 -32 -76 -32 -162 0 -77 5 -104 23 -144 12 -27
22 -50 22 -52 0 -10 -2198 -3 -2233 7 -26 7 -44 21 -57 42 -19 31 -20 59 -20
981 l0 948 34 34 34 34 1579 0 c1456 0 1580 -1 1602 -17z m1138 -375 c-3 -154
-9 -216 -22 -258 -58 -186 -190 -342 -355 -423 -129 -63 -207 -77 -424 -77
l-174 0 -50 55 c-87 94 -96 131 -100 395 -3 150 0 243 8 280 15 70 54 141 103
191 l39 39 490 0 490 0 -5 -202z m-179 -1175 c26 -30 52 -43 85 -43 70 0 119
-21 173 -75 78 -78 95 -176 45 -273 -39 -75 -128 -131 -209 -132 -78 0 -94
-23 -106 -148 -13 -141 -97 -313 -206 -422 -72 -72 -183 -141 -285 -177 -74
-26 -91 -28 -230 -28 -139 0 -156 2 -230 28 -269 95 -471 345 -492 611 -9 117
-20 128 -126 140 -126 15 -211 109 -211 236 0 136 103 239 240 240 77 1 94 36
94 196 l0 114 28 0 c46 0 125 44 169 94 l42 48 53 -40 c131 -98 168 -105 533
-100 l290 4 92 31 c92 30 215 93 230 116 4 6 11 -85 14 -203 3 -118 6 -216 7
-217z m-1223 -1309 c51 -37 170 -93 246 -114 39 -11 73 -21 75 -23 2 -2 -47
-54 -110 -116 l-113 -112 -64 82 c-86 112 -112 192 -93 288 7 33 9 32 59 -5z
m1042 -70 c-6 -77 -30 -131 -102 -222 l-58 -74 -113 113 c-62 62 -112 115
-110 117 2 2 30 10 63 18 69 18 223 91 273 128 l34 26 9 -22 c5 -13 7 -50 4
-84z m-627 -684 l0 -490 -415 0 -415 0 0 208 c1 289 27 413 121 578 45 79 137
186 145 169 2 -6 48 -67 102 -135 92 -119 99 -125 137 -128 39 -3 41 -2 179
142 76 80 141 146 142 146 2 0 4 -220 4 -490z"/>
<path d="M1349 4346 c-87 -31 -139 -101 -139 -187 0 -42 -2 -45 -50 -72 l-49
-28 -38 19 c-57 29 -95 34 -148 21 -66 -17 -109 -63 -190 -204 -54 -95 -69
-131 -73 -172 -6 -71 25 -133 89 -180 48 -34 49 -36 49 -86 0 -51 -1 -53 -45
-80 -32 -20 -52 -43 -71 -83 -41 -83 -33 -126 51 -271 78 -136 105 -168 160
-194 54 -25 110 -24 170 4 l50 24 45 -27 c43 -25 45 -29 51 -81 7 -65 28 -108
69 -143 49 -41 91 -48 266 -44 157 3 162 4 201 31 50 35 83 93 90 160 5 50 7
54 52 78 l46 26 44 -24 c73 -38 170 -26 229 30 13 12 58 82 99 155 68 120 76
138 76 187 0 69 -27 120 -86 165 -46 35 -47 36 -47 92 0 32 4 58 9 58 4 0 29
18 54 41 59 51 82 117 66 187 -9 41 -83 181 -145 273 -54 80 -172 108 -261 61
l-41 -22 -46 26 c-40 22 -46 30 -46 57 0 91 -66 184 -145 206 -56 15 -301 13
-346 -3z m290 -662 c34 -18 64 -43 86 -73 79 -109 70 -237 -25 -332 -161 -161
-430 -49 -430 178 0 104 69 206 161 239 61 22 149 17 208 -12z"/>
<path d="M3624 3008 c-34 -16 -44 -52 -44 -159 0 -132 18 -169 84 -169 12 0
32 9 44 20 20 19 22 30 22 150 0 127 0 129 -26 149 -29 23 -48 25 -80 9z"/>
<path d="M4106 2999 c-26 -20 -26 -22 -26 -150 0 -116 2 -131 20 -149 11 -11
31 -20 44 -20 68 0 86 36 86 169 0 110 -10 143 -47 160 -34 16 -47 14 -77 -10z"/>
<path d="M3620 2320 c-12 -12 -20 -33 -20 -54 0 -27 8 -41 41 -71 144 -130
384 -130 528 0 33 30 41 44 41 71 0 70 -71 97 -128 49 -50 -42 -112 -65 -177
-65 -65 0 -127 23 -177 65 -36 30 -81 32 -108 5z"/>
<path d="M4174 900 c-48 -19 -54 -43 -54 -215 1 -172 4 -186 54 -205 37 -14
414 -13 455 1 17 6 36 19 41 29 6 10 10 91 10 180 0 89 -4 170 -10 180 -5 10
-24 23 -41 29 -38 13 -423 14 -455 1z m356 -210 l0 -60 -130 0 -130 0 0 60 0
60 130 0 130 0 0 -60z"/>
</g>
</svg>
